<?xml version="1.0"?>
<svg xmlns="http://www.w3.org/2000/svg" viewBox="0 0 50 50" width="50px" height="50px">
    <path style="line-height:normal;text-indent:0;text-align:start;text-decoration-line:none;text-decoration-style:solid;text-decoration-color:#000;text-transform:none;block-progression:tb;isolation:auto;mix-blend-mode:normal" d="M 28.992188 4.546875 C 23.778469 4.546875 19.384687 7.6606863 17.261719 12.070312 C 16.129497 11.28715 14.830797 10.722656 13.355469 10.722656 C 9.6400779 10.722656 6.6525916 13.663812 6.4296875 17.324219 C 2.7059141 18.670439 -5.9211895e-16 22.152406 0 26.330078 C 0 31.658457 4.340656 36 9.6699219 36 L 14 36 A 1.0001 1.0001 0 1 0 14 34 L 9.6699219 34 C 5.4211878 34 2 30.577699 2 26.330078 C 2 22.793709 4.3861186 19.841075 7.6269531 18.945312 A 1.0001 1.0001 0 0 0 8.359375 17.947266 C 8.354375 17.80725 8.3476562 17.737037 8.3476562 17.730469 C 8.3476562 14.952955 10.576792 12.722656 13.355469 12.722656 C 14.744384 12.722656 15.991299 13.284551 16.898438 14.193359 A 1.0001 1.0001 0 0 0 18.544922 13.833984 C 20.117523 9.5841078 24.185065 6.546875 28.992188 6.546875 C 35.162781 6.546875 40.142578 11.5257 40.142578 17.695312 C 40.142578 18.150412 40.104655 18.610168 40.046875 19.078125 A 1.0001 1.0001 0 0 0 41.039062 20.199219 C 41.159062 20.199219 41.17766 20.197266 41.097656 20.197266 C 44.922298 20.197313 48 23.275939 48 27.099609 C 48 30.923279 44.92245 34 41.097656 34 L 36 34 A 1.0001 1.0001 0 1 0 36 36 L 41.097656 36 C 46.002862 36 50 32.003939 50 27.099609 C 50 22.54878 46.511044 18.918295 42.095703 18.398438 C 42.110713 18.162872 42.142578 17.93944 42.142578 17.695312 C 42.142578 10.444926 36.243594 4.546875 28.992188 4.546875 z M 19 22.585938 L 13.292969 28.292969 A 1.0001 1.0001 0 1 0 14.707031 29.707031 L 18 26.414062 L 18 44 A 1.0001 1.0001 0 1 0 20 44 L 20 26.414062 L 23.292969 29.707031 A 1.0001 1.0001 0 1 0 24.707031 28.292969 L 19 22.585938 z M 30.984375 22.986328 A 1.0001 1.0001 0 0 0 30 24 L 30 41.585938 L 26.707031 38.292969 A 1.0001 1.0001 0 0 0 25.990234 37.990234 A 1.0001 1.0001 0 0 0 25.292969 39.707031 L 31 45.414062 L 36.707031 39.707031 A 1.0001 1.0001 0 1 0 35.292969 38.292969 L 32 41.585938 L 32 24 A 1.0001 1.0001 0 0 0 30.984375 22.986328 z" font-weight="400" font-family="sans-serif" white-space="normal" overflow="visible"/>
</svg>
